<svg xmlns="http://www.w3.org/2000/svg" viewBox="0 0 64 64">
  <defs>
    <linearGradient id="shield" x1="12" y1="8" x2="52" y2="56" gradientUnits="userSpaceOnUse">
      <stop stop-color="#27906e"/>
      <stop offset="1" stop-color="#14513f"/>
    </linearGradient>
  </defs>
  <path
    fill="url(#shield)"
    d="M32 3.5 54 12v15.2c0 13.9-9.4 25.4-22 29.8C19.4 52.6 10 41.1 10 27.2V12l22-8.5Z"
  />
  <path
    fill="#fffdf8"
    d="M23 18h11.2c7.2 0 11.8 4.1 11.8 10.3 0 4.8-2.8 8.4-7.5 9.8l3.2 8.4h-7.1l-2.7-7.4h-2v7.4H23V18Zm6.9 5.8v9.7h3.8c3.4 0 5.3-1.8 5.3-4.9 0-3.2-1.9-4.8-5.3-4.8h-3.8Z"
  />
  <circle cx="34" cy="28.6" r="2.6" fill="#ed6a2c"/>
</svg>
